<?xml version="1.0" encoding="utf-8"?>
<!DOCTYPE svg PUBLIC "-//W3C//DTD SVG 1.0//EN" "http://www.w3.org/TR/2001/REC-SVG-20010904/DTD/svg10.dtd">
<svg xmlns="http://www.w3.org/2000/svg" version="1.1" width="350" height="360">
<rect width="350" height="360" style="fill:white"/>
<circle cx="198.94" cy="159.32" r="100" style="fill:olivedrab;fill-opacity:0.0;stroke:olivedrab;stroke-width:2;" />
<circle cx="198.94" cy="159.32" r=" 25.00" style="fill:olivedrab;fill-opacity:1.0" stroke-width="2" fill="olivedrab"/>
 <polygon points="198.94, 68.21 163.23,147.71 146.98,230.83 256.59,238.67 291.02,129.39  " style="fill:darkblue;fill-opacity:0.5;stroke:darkblue;stroke-width:1;" />
 <polygon points="198.94, 50.00  50.00,110.92 141.95,237.75 257.79,240.32 295.29,128.01  " style="fill:darkorange;fill-opacity:0.3;stroke:darkorange;stroke-width:1;" />
<line x1="198.94" y1="159.32" x2="146.98" y2="230.83" style="stroke:blue;stroke-width:1;stroke-dasharray:2,2" />
<line x1="198.94" y1="159.32" x2="141.95" y2="237.75" style="stroke:cyan;stroke-width:1;stroke-dasharray:2,2" />
<text x="198.94" y=" 68.21" fill="black" transform="rotate(360 198.94, 68.21)">1</text>
<text x="163.23" y="147.71" fill="black" transform="rotate(288 163.23,147.71)">2</text>
<text x="146.98" y="230.83" fill="black" transform="rotate(216 146.98,230.83)">3</text>
<text x="256.59" y="238.67" fill="black" transform="rotate(144 256.59,238.67)">4</text>
<text x="291.02" y="129.39" fill="black" transform="rotate( 72 291.02,129.39)">5</text>
<text x=" 20" y="280" fill="black">Preferred Arrangement:            centered</text>
<text x=" 20" y="290" fill="black"> <tspan style="fill:black">Rflex(random)/Rsigma: </tspan> <tspan style="fill:darkorange">~ 87.5%</tspan> <tspan style="fill:black"> (</tspan> <tspan style="fill:darkblue">~ 87.6%</tspan> <tspan style="fill:black">)/4.17</tspan></text>
<text x=" 20" y="310" fill="black">(1) Mean Abs. Deviation: <tspan style="fill:darkorange">  2.44</tspan> <tspan style="fill:black">/</tspan>  <tspan style="fill:darkblue">  0.49</tspan></text>
<text x=" 20" y="320" fill="black">(2) St. Deviation: <tspan style="fill:darkorange">  2.80</tspan> <tspan style="fill:black">/</tspan>  <tspan style="fill:darkblue">  0.67</tspan></text>
<text x=" 20" y="330" fill="black">(3) Geometric Average: <tspan style="fill:darkorange"> 15.99</tspan> <tspan style="fill:black">/</tspan>  <tspan style="fill:darkblue"> 14.58</tspan></text>
<text x=" 20" y="340" fill="black">(4) Skewness: <tspan style="fill:darkorange"> -0.13</tspan> <tspan style="fill:black">/</tspan>  <tspan style="fill:darkblue">  1.91</tspan></text>
<text x=" 20" y="350" fill="black">(5) Curtosis: <tspan style="fill:darkorange"> -1.31</tspan> <tspan style="fill:black">/</tspan>  <tspan style="fill:darkblue">  3.17</tspan></text>
 </svg>
